<svg width="180" height="180" viewBox="0 0 180 180" fill="none" xmlns="http://www.w3.org/2000/svg">
  <rect width="180" height="180" rx="40" fill="#274775"/>
  <!-- Pétalo central -->
  <path d="M90 38 C78 52 74 70 76 88 C81 95 90 98 90 98 C90 98 99 95 104 88 C106 70 102 52 90 38Z" fill="white"/>
  <!-- Pétalo izquierdo -->
  <path d="M46 72 C52 58 68 58 82 68 C87 78 86 90 82 96 C70 98 52 92 46 72Z" fill="white" opacity="0.88"/>
  <!-- Pétalo derecho -->
  <path d="M134 72 C128 58 112 58 98 68 C93 78 94 90 98 96 C110 98 128 92 134 72Z" fill="white" opacity="0.88"/>
  <!-- Base / agua -->
  <path d="M58 108 Q90 100 122 108 Q106 128 90 132 Q74 128 58 108Z" fill="white" opacity="0.55"/>
  <!-- Tallo -->
  <rect x="87" y="97" width="6" height="14" rx="3" fill="white" opacity="0.65"/>
  <!-- Centro flor -->
  <circle cx="90" cy="88" r="9" fill="#274775"/>
  <circle cx="90" cy="88" r="5" fill="white" opacity="0.7"/>
</svg>
